<!DOCTYPE svg PUBLIC "-//W3C//DTD SVG 20010904//EN" "http://www.w3.org/TR/2001/REC-SVG-20010904/DTD/svg10.dtd">
<svg version="1.0" xmlns="http://www.w3.org/2000/svg" width="819px" height="272px" viewBox="0 0 8190 2720" preserveAspectRatio="xMidYMid meet">
<g id="layer101" fill="#313232" stroke="none">
 <path d="M820 2713 c-208 -20 -365 -59 -497 -123 -234 -114 -345 -295 -315 -511 43 -303 333 -643 834 -978 133 -88 271 -172 276 -166 2 2 1 31 -3 64 l-7 59 -111 74 c-575 380 -851 751 -734 990 61 125 205 204 443 244 130 21 404 21 589 0 351 -42 800 -156 1196 -306 73 -28 134 -48 136 -46 2 2 -45 102 -105 223 l-110 219 -134 42 c-489 152 -904 224 -1273 220 -82 -1 -166 -3 -185 -5z"/>
 <path d="M3193 2540 c-28 -11 -29 -22 -5 -44 17 -15 21 -15 51 0 40 20 95 8 128 -28 29 -32 102 -156 96 -162 -3 -3 -22 9 -43 25 -43 35 -111 49 -135 29 -39 -32 0 -124 85 -203 66 -62 103 -76 130 -52 10 9 21 15 26 14 44 -8 44 8 -5 152 -57 171 -89 222 -162 259 -41 21 -126 26 -166 10z m238 -257 c62 -56 100 -144 67 -156 -46 -16 -173 129 -155 177 10 26 45 18 88 -21z"/>
 <path d="M7620 2527 c0 -7 31 -64 70 -127 38 -63 70 -119 70 -124 0 -6 -15 4 -32 20 -59 55 -90 74 -121 74 -29 0 -29 -1 -24 -40 4 -30 100 -224 123 -249 3 -3 11 2 18 10 12 12 8 27 -30 104 -24 49 -44 95 -44 102 0 47 90 -34 136 -122 29 -54 55 -69 62 -34 2 9 -34 102 -80 207 l-83 191 -32 1 c-20 0 -33 -5 -33 -13z"/>
 <path d="M3768 2370 c-10 -6 -18 -19 -18 -29 0 -17 -4 -16 -50 6 -65 31 -123 29 -128 -5 -4 -25 136 -263 152 -259 31 9 25 36 -24 126 -56 101 -56 122 -2 103 37 -13 112 -4 112 13 0 18 28 27 50 15 37 -20 40 -41 14 -92 -45 -89 -19 -158 61 -158 36 0 71 31 62 55 -8 19 -21 19 -37 0 -16 -19 -34 -19 -51 1 -11 13 -9 23 14 64 33 59 34 100 4 136 -20 23 -33 28 -83 31 -32 2 -67 -1 -76 -7z"/>
 <path d="M4618 2369 c-10 -5 -18 -17 -18 -24 0 -18 5 -19 -58 5 -58 22 -151 27 -170 8 -44 -44 48 -207 142 -252 44 -21 92 -21 100 0 9 24 7 72 -3 78 -18 11 -41 -6 -41 -30 0 -53 -69 -8 -114 75 -48 90 -19 121 81 87 52 -18 77 -20 69 -7 -3 4 6 6 19 3 18 -3 30 2 44 19 16 20 22 22 44 12 39 -18 42 -47 13 -98 -14 -24 -26 -58 -26 -75 0 -72 96 -109 140 -53 18 23 19 28 5 35 -10 6 -21 4 -31 -6 -19 -20 -38 -20 -53 -2 -10 12 -6 27 19 74 36 70 34 99 -12 137 -23 20 -40 25 -81 25 -29 0 -60 -5 -69 -11z"/>
 <path d="M5067 2373 c-10 -3 -17 -8 -15 -13 13 -33 176 -270 186 -270 25 0 23 28 -7 78 -16 28 -27 53 -24 56 3 3 32 -19 65 -49 89 -83 140 -72 94 19 -25 49 -12 66 17 22 21 -32 81 -68 101 -60 20 8 21 55 2 92 -28 55 -29 72 -6 72 11 0 23 -8 26 -17 13 -42 32 -70 82 -124 62 -68 117 -94 159 -77 28 11 37 14 61 16 18 3 15 29 -14 110 -20 54 -24 76 -16 84 19 19 51 -3 90 -62 42 -62 116 -122 181 -147 41 -16 46 -16 72 0 l29 16 15 -52 c8 -29 18 -70 23 -92 6 -30 13 -40 27 -40 29 0 23 39 -30 205 -25 77 -45 149 -45 160 0 48 77 8 125 -65 46 -69 108 -122 156 -135 110 -30 113 83 4 142 -27 15 -67 30 -87 33 -44 8 -49 27 -13 51 24 16 29 15 88 -4 66 -22 77 -21 58 2 -31 37 -191 62 -219 34 -7 -7 -12 -21 -12 -32 0 -18 -1 -18 -12 -3 -18 23 -81 47 -124 47 l-37 0 7 -46 6 -46 -31 27 c-72 60 -170 85 -199 50 -11 -13 -16 -13 -42 1 -16 8 -44 14 -61 12 -27 -3 -32 -7 -31 -28 1 -14 5 -34 9 -45 9 -19 8 -20 -15 -2 -99 71 -114 78 -175 77 -33 -1 -75 0 -94 2 -53 5 -60 -18 -27 -82 20 -38 25 -55 16 -64 -8 -8 -32 12 -91 72 -62 65 -84 82 -99 77 -11 -4 -20 -9 -20 -13 0 -7 36 -71 72 -129 39 -64 -11 -37 -106 57 -51 50 -94 89 -97 89 -2 -1 -12 -3 -22 -6z m630 -106 c20 -17 45 -52 56 -76 17 -39 17 -45 4 -59 -13 -13 -20 -13 -47 -2 -44 18 -118 104 -126 147 -12 65 32 61 113 -10z m320 31 c35 -21 81 -75 107 -126 16 -32 16 -32 -9 -44 -22 -10 -31 -7 -78 25 -56 38 -117 110 -117 137 0 43 35 46 97 8z m351 -63 c49 -21 82 -53 82 -82 0 -31 -22 -29 -62 6 -32 28 -75 91 -63 91 3 0 22 -7 43 -15z"/>
 <path d="M7361 2361 c-20 -20 -23 -20 -44 -6 -28 20 -93 20 -101 0 -3 -8 -1 -27 4 -41 6 -14 10 -27 10 -30 0 -2 -27 16 -61 41 -89 66 -159 62 -159 -9 0 -62 112 -192 186 -216 29 -10 39 -9 59 4 13 9 30 13 38 10 8 -3 19 1 25 9 9 11 5 33 -17 98 -32 90 -29 110 13 91 30 -13 96 -4 96 13 0 33 63 28 81 -6 8 -16 5 -30 -15 -69 -33 -63 -33 -104 -1 -135 30 -31 84 -34 108 -7 32 35 11 67 -23 37 -21 -19 -47 -14 -56 10 -4 9 5 33 20 55 35 53 35 108 1 140 -37 35 -134 41 -164 11z m-170 -90 c28 -25 59 -65 69 -88 19 -42 19 -43 0 -53 -10 -5 -27 -7 -37 -3 -73 27 -163 152 -133 187 16 21 46 8 101 -43z"/>
 <path d="M2790 2342 c0 -16 26 -85 59 -153 32 -68 69 -153 81 -187 23 -64 42 -84 61 -65 7 7 -14 71 -60 187 -39 97 -71 181 -71 187 0 11 31 9 78 -6 16 -5 22 -3 22 8 0 18 -92 57 -136 57 -31 0 -34 -3 -34 -28z"/>
 <path d="M2986 2349 c-40 -57 45 -198 152 -253 67 -35 72 -4 7 42 -83 59 -132 167 -86 192 48 25 112 -47 121 -135 5 -45 7 -50 30 -50 23 0 25 3 23 47 -3 101 -81 178 -181 178 -41 0 -54 -4 -66 -21z"/>
 <path d="M3984 2355 c-10 -25 2 -55 60 -153 l55 -93 -36 7 c-52 10 -39 -18 15 -30 36 -8 43 -15 57 -53 12 -30 22 -43 36 -43 23 0 24 12 4 50 l-16 30 41 0 c33 0 40 3 40 20 0 17 -7 20 -48 20 l-47 0 -48 95 c-26 52 -47 100 -47 106 0 11 30 9 79 -7 41 -12 20 19 -30 43 -52 26 -107 30 -115 8z"/>
 <path d="M4167 2363 c-4 -3 -7 -15 -7 -26 0 -25 142 -257 154 -254 32 10 27 36 -24 126 -56 102 -56 122 1 102 41 -14 49 -14 49 3 0 29 -151 72 -173 49z"/>
 <path d="M6763 2343 c-10 -16 -21 -31 -26 -34 -4 -3 -1 -11 7 -18 8 -7 26 -32 40 -56 54 -91 166 -162 215 -136 34 18 29 76 -9 111 -29 28 -124 70 -155 70 -17 0 -19 18 -5 40 12 19 73 16 123 -5 36 -15 38 -15 35 2 -5 25 -82 52 -150 52 -52 1 -59 -2 -75 -26z m162 -132 c44 -30 62 -81 29 -81 -19 0 -114 93 -114 111 0 15 38 2 85 -30z"/>
 <path d="M3750 1991 c0 -33 11 -51 31 -51 24 0 25 32 3 54 -21 21 -34 20 -34 -3z"/>
 <path d="M4340 1991 c0 -33 11 -51 31 -51 24 0 25 32 3 54 -21 21 -34 20 -34 -3z"/>
 <path d="M5962 1745 c-34 -8 -88 -28 -119 -45 -56 -30 -72 -28 -73 6 0 7 -7 15 -16 18 -9 3 -245 6 -524 6 -395 0 -512 -3 -520 -12 -6 -7 -38 -71 -70 -142 -39 -87 -60 -122 -63 -110 -3 11 -15 71 -27 134 -12 63 -27 118 -33 122 -14 9 -268 11 -291 2 -9 -3 -16 -16 -16 -28 0 -21 44 -272 57 -323 5 -22 3 -23 -65 -23 l-69 0 -26 138 c-14 75 -29 155 -33 177 -11 65 -11 65 -170 65 -126 0 -144 -2 -153 -17 -11 -21 167 -995 185 -1013 8 -8 154 -10 490 -8 472 3 480 3 536 26 31 12 62 29 68 37 16 19 30 10 30 -19 0 -46 0 -46 445 -46 438 0 445 1 445 42 0 17 4 16 48 -6 111 -56 283 -80 403 -57 62 13 148 50 180 78 15 12 17 11 24 -14 3 -15 12 -31 18 -35 7 -4 73 -8 148 -8 109 0 139 3 149 15 11 14 0 97 -46 328 l-6 27 144 0 143 0 33 -177 c17 -98 37 -180 44 -185 7 -4 225 -7 483 -5 l470 2 3 31 c4 46 -34 235 -50 245 -7 5 -55 9 -105 9 -51 0 -93 2 -93 5 0 30 -135 723 -142 733 -11 13 -260 18 -292 6 -10 -4 -16 -18 -16 -35 0 -16 27 -175 60 -352 33 -178 60 -331 60 -340 0 -14 -10 -17 -58 -17 l-58 0 -66 361 c-37 198 -72 367 -79 375 -18 22 -281 20 -300 -2 -10 -13 -7 -44 19 -182 18 -92 32 -175 32 -185 0 -15 -14 -17 -140 -17 -137 0 -140 0 -145 23 -2 12 -18 96 -35 187 -17 90 -36 170 -42 177 -11 14 -260 19 -292 7 -9 -3 -16 -17 -16 -30 l0 -23 -63 30 c-121 56 -272 73 -405 44z m241 -276 c22 -6 55 -26 75 -44 l37 -34 -77 -1 c-95 0 -108 -5 -108 -40 0 -27 25 -176 36 -212 5 -16 22 -18 184 -18 187 0 190 -1 190 -46 0 -11 -10 -10 -50 6 -78 31 -87 28 -114 -35 -17 -36 -36 -61 -58 -75 -135 -82 -334 86 -346 292 -10 165 83 248 231 207z m-703 -43 c0 -7 3 -28 6 -45 l7 -31 -120 0 -120 0 -7 31 c-12 61 -16 59 114 59 95 0 120 -3 120 -14z m-556 -63 c4 -27 10 -56 12 -66 5 -17 3 -17 -35 3 -23 11 -41 23 -41 26 0 10 45 84 51 84 4 0 10 -21 13 -47z m-213 -266 c23 -16 37 -35 44 -61 8 -34 7 -40 -14 -57 -30 -25 -88 -25 -95 -1 -4 15 -26 130 -26 139 0 12 63 -1 91 -20z m-407 -49 c3 -7 7 -25 10 -40 l6 -28 -69 0 c-63 0 -69 2 -75 23 -14 54 -11 57 59 57 44 0 67 -4 69 -12z m1246 -5 c0 -10 3 -28 6 -40 6 -23 6 -23 -114 -23 -116 0 -120 1 -126 23 -15 57 -16 57 114 57 108 0 120 -2 120 -17z"/>
 <path d="M2030 1732 c-69 -23 -115 -47 -161 -83 -30 -23 -39 -26 -48 -16 -21 27 -126 70 -200 83 -109 19 -514 19 -530 0 -9 -11 8 -124 79 -508 51 -271 97 -499 103 -506 15 -18 462 -12 522 8 39 12 117 80 127 110 4 12 18 5 66 -28 129 -90 248 -126 391 -118 53 3 168 8 256 11 197 7 205 8 205 40 0 20 -29 190 -45 263 -3 13 54 -40 147 -138 l151 -160 173 0 c181 0 203 5 190 47 -3 10 -105 114 -227 232 -146 142 -219 219 -216 230 2 9 70 119 151 244 81 127 146 239 146 252 0 12 -7 26 -16 29 -9 3 -91 6 -184 6 -127 0 -172 -3 -182 -13 -7 -8 -56 -86 -108 -175 -52 -89 -96 -159 -97 -155 -2 5 -16 79 -32 167 -17 87 -33 161 -36 165 -4 3 -84 9 -178 13 -95 4 -221 9 -282 12 -90 5 -120 3 -165 -12z m-465 -286 c37 -16 58 -46 53 -79 -3 -24 -31 -35 -99 -36 -46 -1 -47 -1 -53 37 -4 20 -9 49 -12 65 -5 26 -4 27 36 27 22 0 56 -6 75 -14z m782 -40 c29 -14 53 -29 53 -35 0 -5 14 -83 31 -173 l30 -163 -21 -17 c-108 -87 -312 -5 -370 149 -75 201 76 331 277 239z m-744 -368 c35 -41 18 -78 -38 -78 -19 0 -24 7 -29 38 -4 20 -10 45 -13 56 -4 16 -1 17 29 11 18 -4 41 -16 51 -27z"/>
 <path d="M1821 625 c-18 -8 -43 -15 -54 -15 -35 0 -8 -16 118 -70 331 -143 772 -305 1196 -440 337 -107 373 -109 99 -7 -430 161 -890 351 -1174 486 -71 34 -134 61 -140 61 -6 -1 -26 -7 -45 -15z"/>
 </g>
<g id="layer102" fill="#0098e3" stroke="none">
 <path d="M775 2710 c-435 -49 -708 -218 -761 -471 -34 -162 20 -340 164 -543 75 -106 279 -308 422 -420 108 -84 367 -259 473 -320 53 -32 53 -32 41 57 -7 46 -7 46 -133 130 -568 379 -834 742 -718 980 182 370 1153 343 2231 -64 71 -27 131 -47 133 -45 5 5 -215 446 -222 446 -3 0 -70 20 -149 45 -286 88 -564 151 -820 186 -172 23 -534 33 -661 19z"/>
 <path d="M2090 1709 c-60 -10 -158 -55 -204 -93 l-28 -23 26 -39 c30 -46 56 -140 56 -204 0 -57 -38 -138 -78 -164 l-29 -19 34 -49 c38 -57 63 -134 63 -192 0 -38 4 -45 53 -82 115 -90 245 -138 377 -138 77 0 173 19 207 41 8 6 5 44 -14 148 -14 77 -27 142 -29 143 -1 2 -18 -11 -37 -30 -40 -40 -93 -58 -173 -58 -109 0 -211 66 -263 171 -93 186 -12 348 175 349 72 0 127 -17 189 -60 25 -17 45 -27 45 -22 0 27 -51 276 -57 282 -15 14 -129 39 -193 44 -36 3 -90 1 -120 -5z"/>
 <path d="M5953 1705 c-57 -16 -115 -43 -150 -72 l-21 -18 74 -399 c41 -219 78 -404 84 -411 20 -24 108 -64 185 -86 112 -30 274 -25 355 13 94 42 152 104 184 195 l14 40 -121 47 c-67 25 -125 46 -129 46 -3 0 -12 -16 -18 -35 -14 -44 -69 -91 -120 -105 -196 -53 -405 210 -350 440 16 68 76 133 139 150 100 27 217 -22 264 -109 l28 -51 -104 0 -104 0 8 -47 c5 -27 14 -72 20 -100 l10 -53 246 0 246 0 -6 43 c-3 23 -17 75 -31 115 -68 201 -221 348 -411 397 -73 19 -222 18 -292 0z"/>
 <path d="M1120 1683 c1 -5 40 -219 88 -478 l88 -470 234 0 c224 0 237 1 277 22 85 46 111 129 78 251 -16 56 -27 75 -71 119 l-52 52 29 6 c75 17 126 105 116 198 -15 120 -64 200 -154 250 -88 47 -155 57 -405 57 -126 0 -228 -3 -228 -7z m431 -194 c60 -13 94 -44 103 -94 13 -69 -18 -93 -132 -102 l-78 -6 -17 90 c-24 127 -25 123 28 123 24 0 67 -5 96 -11z m49 -399 c30 -16 52 -49 57 -88 5 -35 2 -42 -21 -58 -25 -16 -126 -33 -126 -21 0 3 -7 41 -15 84 -21 111 -23 106 38 98 28 -4 59 -11 67 -15z"/>
 <path d="M2440 1678 c1 -7 13 -79 29 -161 22 -117 25 -151 16 -164 -8 -10 -19 -14 -30 -10 -14 6 -16 3 -12 -15 3 -13 15 -75 27 -139 21 -112 22 -116 46 -111 18 3 26 -2 33 -19 15 -36 63 -308 56 -319 -4 -6 33 -10 94 -10 90 0 101 2 101 18 0 9 -15 98 -34 196 l-34 179 82 -84 c45 -46 129 -135 189 -196 l107 -113 152 0 153 1 -228 225 c-158 155 -227 229 -223 240 3 8 73 121 156 249 82 129 150 237 150 240 0 3 -72 5 -159 5 l-159 0 -20 -32 c-11 -18 -66 -112 -123 -208 l-103 -175 -12 60 c-6 33 -24 126 -39 208 l-27 147 -94 0 c-69 0 -94 -3 -94 -12z"/>
 <path d="M3785 1668 c2 -13 41 -221 85 -463 45 -242 83 -448 86 -457 5 -17 27 -18 280 -18 213 0 274 3 273 13 0 6 -8 53 -18 102 l-17 90 -152 3 -151 3 -11 57 c-6 31 -13 67 -16 80 -4 22 -4 22 131 22 156 0 144 -12 118 122 l-17 88 -138 0 c-76 0 -138 3 -138 8 0 8 -57 317 -65 350 -5 21 -9 22 -130 22 -125 0 -125 0 -120 -22z"/>
 <path d="M4250 1672 c0 -15 41 -246 55 -309 5 -20 12 -23 50 -23 51 0 45 11 74 -142 21 -112 16 -128 -35 -128 -35 0 -35 -1 -29 -32 14 -69 12 -68 71 -68 65 0 65 0 90 -142 l16 -98 162 0 c223 0 303 26 353 115 47 83 23 241 -51 338 -35 45 -108 95 -153 103 -22 4 -32 11 -29 19 2 7 52 95 110 195 58 100 106 183 106 186 0 2 -69 4 -154 4 l-153 0 -51 -112 c-28 -62 -65 -144 -82 -182 -17 -38 -32 -67 -34 -65 -2 2 -19 84 -37 182 l-32 177 -124 0 c-111 0 -123 -2 -123 -18z m455 -523 c79 -22 132 -106 103 -167 -17 -35 -71 -62 -125 -62 -48 0 -42 -12 -71 143 l-19 97 36 0 c20 0 54 -5 76 -11z"/>
 <path d="M5021 1585 l-62 -105 22 -117 c18 -100 27 -127 59 -175 21 -32 46 -81 55 -108 22 -66 22 -173 1 -223 -12 -29 -14 -48 -7 -79 5 -22 11 -42 14 -44 2 -2 125 -3 273 -2 l269 3 -19 103 -19 102 -148 0 -148 0 -11 58 c-6 31 -13 67 -16 80 -4 22 -4 22 137 22 l142 0 -6 28 c-3 15 -11 62 -18 105 l-13 77 -142 0 -142 0 -12 68 c-6 37 -14 75 -17 85 -4 16 8 17 145 17 l150 0 -13 68 c-7 37 -15 84 -19 105 l-7 37 -194 0 -193 0 -61 -105z"/>
 <path d="M5503 1668 c17 -70 37 -199 33 -207 -4 -5 7 -76 23 -158 16 -81 35 -184 41 -228 7 -44 19 -91 25 -105 7 -14 20 -65 29 -115 9 -49 19 -98 22 -107 5 -16 19 -18 120 -18 85 0 114 3 114 13 0 7 -38 219 -85 471 -47 252 -85 463 -85 467 0 5 -54 9 -121 9 -121 0 -121 0 -116 -22z"/>
 <path d="M6470 1664 c0 -18 20 -48 68 -99 82 -88 132 -183 168 -318 32 -122 29 -127 -68 -127 l-69 0 7 -37 c9 -51 7 -48 65 -69 27 -10 55 -24 61 -31 13 -16 -12 -94 -47 -146 -21 -30 -25 -44 -19 -72 l6 -35 124 0 c68 0 124 3 124 8 0 4 -15 87 -34 185 l-33 177 182 0 181 0 18 -97 c9 -54 24 -137 33 -185 l16 -88 123 0 c68 0 124 3 124 8 0 4 -39 220 -87 480 l-87 472 -123 0 c-81 0 -123 -4 -123 -11 0 -11 56 -317 65 -357 l5 -22 -182 2 -182 3 -35 193 -36 192 -122 0 -123 0 0 -26z"/>
 <path d="M7524 1673 c3 -10 32 -166 66 -348 33 -181 63 -342 66 -357 l6 -28 -81 0 c-45 0 -81 -3 -81 -7 0 -5 7 -52 17 -105 l16 -98 314 0 c295 0 314 1 309 18 -5 16 -36 179 -36 188 0 2 -47 4 -104 4 l-104 0 -26 143 c-15 78 -46 246 -69 372 l-43 230 -128 3 c-118 2 -127 1 -122 -15z"/>
 <path d="M1821 625 c-18 -8 -43 -15 -54 -15 -13 0 -17 -4 -11 -9 27 -28 571 -244 917 -365 232 -81 696 -228 709 -224 5 2 -116 50 -269 107 -418 157 -957 382 -1172 491 -69 34 -73 35 -120 15z"/>
 </g>
<g id="layer103" fill="#fefdfc" stroke="none">
 <path d="M2091 1709 c-59 -10 -161 -56 -205 -93 l-28 -23 26 -39 c78 -120 69 -309 -19 -367 l-32 -21 32 -45 c38 -52 65 -135 65 -196 0 -39 4 -44 58 -84 123 -92 241 -135 372 -135 77 0 174 20 206 41 8 6 5 47 -14 148 -14 77 -26 142 -28 144 -2 2 -13 -7 -24 -21 -53 -68 -198 -90 -296 -44 -72 33 -119 78 -153 147 -93 186 -12 348 175 349 71 0 128 -18 190 -60 24 -16 44 -26 44 -21 0 25 -51 276 -58 282 -13 11 -141 39 -200 44 -31 2 -81 0 -111 -6z"/>
 <path d="M5950 1704 c-30 -8 -80 -30 -110 -49 -44 -27 -54 -39 -52 -57 8 -76 144 -784 152 -793 20 -24 112 -66 186 -85 92 -24 225 -26 302 -6 109 29 195 103 231 200 l19 51 -121 48 c-66 26 -124 47 -128 47 -4 0 -10 -11 -13 -25 -10 -41 -71 -100 -117 -114 -163 -49 -348 120 -366 335 -15 174 94 284 252 255 73 -13 132 -54 163 -112 l23 -44 -104 -3 -104 -3 8 -42 c4 -23 13 -68 19 -99 l11 -58 246 0 246 0 -7 40 c-40 254 -214 456 -441 515 -74 19 -222 18 -295 -1z"/>
 <path d="M1124 1663 c6 -28 151 -814 165 -888 l7 -40 234 0 c232 0 236 0 280 25 82 46 107 132 74 252 -18 62 -77 141 -116 154 -17 5 -12 10 33 28 94 37 126 119 95 244 -20 82 -56 137 -120 179 -89 60 -124 66 -404 71 l-254 4 6 -29z m473 -190 c65 -31 81 -124 28 -159 -34 -22 -185 -33 -185 -13 0 8 -9 56 -19 108 l-18 94 78 -6 c46 -3 94 -13 116 -24z m8 -385 c27 -12 55 -63 55 -100 0 -37 -31 -59 -94 -65 -31 -3 -56 -3 -56 0 0 3 -7 41 -15 84 -21 112 -23 107 35 99 28 -4 62 -12 75 -18z"/>
 <path d="M2440 1683 c0 -5 13 -77 29 -161 22 -121 25 -156 16 -169 -8 -10 -19 -14 -30 -10 -14 6 -16 3 -12 -15 3 -13 15 -75 27 -139 21 -110 23 -116 44 -112 12 3 27 -1 33 -9 5 -7 23 -86 38 -175 l29 -163 93 0 c82 0 93 2 93 18 0 9 -15 98 -34 196 l-34 179 87 -89 c47 -49 132 -137 189 -197 l103 -107 152 0 152 1 -229 224 c-159 157 -226 230 -222 240 3 9 73 121 156 251 82 129 150 237 150 239 0 3 -72 5 -159 5 l-159 0 -107 -182 c-156 -266 -137 -244 -151 -173 -6 33 -24 126 -39 208 l-27 147 -94 0 c-52 0 -94 -3 -94 -7z"/>
 <path d="M3785 1668 c3 -13 41 -219 85 -458 44 -239 82 -445 85 -457 l5 -23 276 0 275 0 -6 33 c-3 17 -12 64 -18 102 l-13 70 -151 3 -152 3 -11 57 c-6 31 -13 67 -16 80 -4 22 -4 22 131 22 98 0 135 3 135 12 0 6 -7 54 -17 105 l-16 93 -138 0 -137 0 -6 28 c-3 15 -17 92 -31 172 -15 80 -28 153 -31 163 -5 15 -20 17 -130 17 -124 0 -124 0 -119 -22z"/>
 <path d="M4250 1677 c0 -13 45 -268 55 -314 5 -20 12 -23 50 -23 51 0 45 12 75 -145 21 -112 18 -125 -37 -125 -34 0 -34 -1 -28 -32 14 -69 12 -68 70 -68 66 0 65 0 90 -137 l18 -103 162 0 c173 0 233 11 296 52 104 69 106 268 5 401 -35 45 -108 95 -153 103 -24 5 -33 11 -29 21 3 8 53 95 111 194 58 99 105 182 105 185 0 2 -69 4 -153 4 l-154 0 -83 -185 c-46 -102 -84 -184 -85 -182 -1 1 -17 84 -35 185 l-34 182 -123 0 c-96 0 -123 -3 -123 -13z m497 -542 c36 -21 59 -57 68 -106 6 -31 3 -41 -22 -69 -24 -27 -37 -32 -90 -37 -71 -7 -62 -22 -92 141 l-18 99 62 -5 c35 -3 76 -13 92 -23z"/>
 <path d="M5021 1585 l-62 -105 22 -117 c18 -100 27 -127 59 -175 21 -32 46 -81 56 -110 22 -67 22 -171 1 -221 -13 -30 -15 -48 -8 -79 5 -22 11 -42 14 -44 2 -2 125 -3 273 -2 l269 3 -19 103 -19 102 -148 0 -148 0 -11 58 c-6 31 -13 67 -16 80 -4 22 -4 22 137 22 l142 0 -6 28 c-3 15 -11 62 -18 105 l-13 77 -142 0 -141 0 -12 63 c-7 34 -15 72 -18 84 -5 22 -4 22 144 25 l149 3 -19 103 -19 102 -193 0 -193 0 -61 -105z"/>
 <path d="M5505 1668 c17 -80 35 -199 31 -207 -3 -5 7 -76 23 -157 16 -82 34 -183 41 -224 7 -41 18 -90 26 -108 7 -19 21 -73 29 -120 9 -48 19 -95 21 -104 5 -16 19 -18 120 -18 77 0 114 4 114 11 0 6 -38 218 -85 471 -47 253 -85 464 -85 469 0 5 -54 9 -120 9 -120 0 -120 0 -115 -22z"/>
 <path d="M6470 1664 c0 -19 20 -47 69 -100 82 -88 140 -198 171 -327 26 -112 23 -117 -72 -117 l-69 0 7 -37 c9 -51 7 -49 63 -68 70 -23 76 -34 57 -92 -9 -27 -28 -65 -41 -86 -21 -30 -25 -44 -19 -72 l6 -35 124 0 c68 0 124 3 124 8 0 4 -15 87 -34 185 l-33 177 182 0 181 0 34 -185 33 -185 125 0 125 0 -6 28 c-2 15 -42 231 -88 480 l-84 452 -122 0 c-81 0 -123 -4 -123 -11 0 -11 56 -317 65 -357 l5 -22 -182 2 -182 3 -36 190 -35 190 -122 3 -123 3 0 -27z"/>
 <path d="M7526 1673 c2 -10 31 -166 64 -348 33 -181 63 -342 66 -357 l6 -28 -81 0 c-45 0 -81 -3 -81 -7 0 -5 7 -52 17 -105 l18 -98 312 0 c245 0 312 3 309 13 -3 6 -12 54 -21 105 l-17 92 -104 0 c-57 0 -104 3 -104 8 -1 4 -31 171 -68 372 l-68 365 -126 3 c-117 2 -126 1 -122 -15z"/>
 </g>

</svg>