<!DOCTYPE svg PUBLIC "-//W3C//DTD SVG 20010904//EN" "http://www.w3.org/TR/2001/REC-SVG-20010904/DTD/svg10.dtd">
<svg version="1.0" xmlns="http://www.w3.org/2000/svg" width="340px" height="272px" viewBox="0 0 3400 2720" preserveAspectRatio="xMidYMid meet">
<g id="layer101" fill="#079ae2" stroke="none">
 <path d="M795 2709 c-740 -70 -995 -497 -607 -1019 137 -186 389 -408 672 -595 193 -128 243 -156 642 -361 389 -201 649 -311 1138 -484 193 -68 697 -230 714 -230 6 0 -106 45 -249 99 -741 280 -1095 440 -1655 749 -488 269 -686 403 -908 617 -370 355 -410 650 -108 802 388 196 1214 99 2128 -250 l66 -25 -82 171 c-46 95 -94 193 -106 219 -24 47 -24 48 -129 82 -543 179 -1109 263 -1516 225z"/>
 </g>

</svg>