<!DOCTYPE svg PUBLIC "-//W3C//DTD SVG 20010904//EN" "http://www.w3.org/TR/2001/REC-SVG-20010904/DTD/svg10.dtd">
<svg version="1.0" xmlns="http://www.w3.org/2000/svg" width="340px" height="272px" viewBox="0 0 3400 2720" preserveAspectRatio="xMidYMid meet">
<g id="layer101" fill="#313232" stroke="none">
<path d="M2047 1729 c-48 -11 -132 -54 -177 -90 l-36 -27 -44 29 c-92 62 -148 72 -432 77 -218 3 -259 2 -263 -10 -5 -13 151 -886 174 -973 l7 -30 245 0 c240 0 245 0 294 25 35 17 59 40 81 72 l30 47 55 -40 c114 -86 238 -130 369 -131 47 0 105 5 130 11 25 6 112 11 193 11 121 0 149 3 153 15 3 8 -6 81 -21 161 -14 80 -25 148 -23 150 3 2 74 -71 159 -161 l154 -165 153 0 152 0 0 43 c1 42 0 43 -207 243 l-208 202 33 45 c17 25 32 48 32 52 0 4 16 30 35 56 19 27 35 52 35 55 0 4 20 35 45 70 25 34 45 66 45 70 0 3 15 27 33 53 92 131 90 132 -130 129 l-178 -3 -107 -179 c-61 -102 -109 -173 -112 -165 -3 8 -17 79 -31 159 -14 80 -30 155 -35 167 -8 20 -16 22 -187 27 -98 4 -223 8 -278 10 -55 3 -117 0 -138 -5z m-466 -279 c28 -13 49 -47 49 -81 0 -26 -54 -49 -118 -49 l-49 0 -7 43 c-4 23 -9 57 -13 76 l-6 34 59 -5 c32 -3 71 -11 85 -18z m769 -38 l55 -27 32 -170 c17 -93 32 -175 32 -181 1 -6 -18 -21 -41 -34 -52 -29 -152 -32 -209 -8 -97 42 -169 147 -177 259 -7 100 34 160 125 185 61 16 114 9 183 -24z m-742 -368 c31 -34 29 -72 -4 -84 -52 -20 -71 -13 -78 28 -4 20 -9 50 -12 65 -6 28 -5 28 33 22 21 -4 48 -18 61 -31z"/>
</g>
<g id="layer102" fill="#0098e3" stroke="none">
<path d="M765 2700 c-410 -46 -678 -208 -740 -445 -20 -80 -19 -146 5 -241 80 -311 408 -653 958 -996 62 -39 115 -68 118 -65 3 3 2 26 -1 51 -7 46 -9 48 -109 113 -174 115 -337 243 -459 363 -139 134 -202 214 -259 328 -38 75 -42 92 -46 171 -4 74 -1 95 18 139 24 56 89 123 160 165 201 117 621 141 1090 61 282 -48 603 -135 924 -251 98 -35 180 -62 183 -60 2 3 -42 97 -99 208 l-103 204 -133 43 c-277 89 -596 161 -874 198 -144 18 -518 27 -633 14z"/>
<path d="M1823 618 c-18 -6 -33 -14 -33 -19 0 -26 706 -300 1104 -428 87 -28 160 -50 162 -48 2 1 -88 38 -199 81 -237 92 -619 254 -835 355 -85 39 -157 71 -160 70 -4 -1 -22 -6 -39 -11z"/>
</g>
<g id="layer103" fill="#ffffff" stroke="none">
<path d="M2091 1709 c-59 -10 -161 -56 -205 -93 l-28 -23 26 -39 c78 -120 69 -309 -19 -367 l-32 -21 32 -45 c38 -52 65 -135 65 -196 0 -39 4 -44 58 -84 123 -92 241 -135 372 -135 77 0 173 19 207 41 8 6 5 44 -14 148 -14 77 -27 142 -29 144 -2 2 -13 -7 -24 -21 -53 -68 -198 -90 -296 -44 -72 33 -119 78 -153 147 -93 186 -12 348 175 349 72 0 127 -17 189 -60 25 -17 45 -27 45 -22 0 27 -51 276 -57 283 -13 12 -135 39 -198 43 -33 3 -84 1 -114 -5z"/>
<path d="M1120 1683 c1 -5 40 -219 88 -478 l87 -470 235 0 c224 0 237 1 277 22 23 13 51 36 63 52 65 92 14 286 -92 351 l-29 17 32 7 c83 16 137 102 126 199 -15 120 -64 200 -154 250 -88 47 -155 57 -405 57 -126 0 -228 -3 -228 -7z m477 -210 c64 -31 81 -124 29 -158 -33 -22 -186 -33 -186 -14 0 8 -9 56 -19 108 l-18 94 78 -6 c46 -3 94 -13 116 -24z m8 -385 c27 -12 55 -63 55 -100 0 -37 -31 -59 -94 -65 -31 -3 -56 -3 -56 0 0 3 -7 41 -15 84 -21 112 -23 107 35 99 28 -4 62 -12 75 -18z"/>
<path d="M2440 1683 c0 -5 13 -77 29 -161 22 -121 25 -156 16 -169 -8 -10 -19 -14 -30 -10 -14 6 -16 3 -12 -15 3 -13 15 -75 27 -139 21 -111 23 -116 45 -111 33 6 39 -10 71 -190 l28 -158 93 0 c82 0 93 2 93 18 0 9 -15 98 -34 196 l-34 179 87 -89 c47 -49 132 -137 189 -197 l103 -107 145 0 c79 0 144 4 144 9 0 5 -99 106 -221 225 -153 150 -219 221 -215 231 3 9 73 121 156 251 82 129 150 237 150 239 0 3 -72 5 -159 5 l-159 0 -107 -182 c-156 -266 -137 -244 -151 -173 -6 33 -24 126 -39 208 l-27 147 -94 0 c-52 0 -94 -3 -94 -7z"/>
</g>


</svg>