<svg width="8190" height="2720" xmlns="http://www.w3.org/2000/svg" preserveAspectRatio="xMidYMid meet">

 <g>
  <title>background</title>
  <rect fill="none" id="canvas_background" height="602" width="802" y="-1" x="-1"/>
 </g>
 <g>
  <title>Layer 1</title>
  <g fill="#313232" id="layer101">
   <path id="svg_1" d="m820,2713c-208,-20 -365,-59 -497,-123c-234,-114 -345,-295 -315,-511c43,-303 333,-643 834,-978c133,-88 271,-172 276,-166c2,2 1,31 -3,64l-7,59l-111,74c-575,380 -851,751 -734,990c61,125 205,204 443,244c130,21 404,21 589,0c351,-42 800,-156 1196,-306c73,-28 134,-48 136,-46c2,2 -45,102 -105,223l-110,219l-134,42c-489,152 -904,224 -1273,220c-82,-1 -166,-3 -185,-5z"/>
   <path id="svg_15" d="m5962,1745c-34,-8 -88,-28 -119,-45c-56,-30 -72,-28 -73,6c0,7 -7,15 -16,18c-9,3 -245,6 -524,6c-395,0 -512,-3 -520,-12c-6,-7 -38,-71 -70,-142c-39,-87 -60,-122 -63,-110c-3,11 -15,71 -27,134c-12,63 -27,118 -33,122c-14,9 -268,11 -291,2c-9,-3 -16,-16 -16,-28c0,-21 44,-272 57,-323c5,-22 3,-23 -65,-23l-69,0l-26,138c-14,75 -29,155 -33,177c-11,65 -11,65 -170,65c-126,0 -144,-2 -153,-17c-11,-21 167,-995 185,-1013c8,-8 154,-10 490,-8c472,3 480,3 536,26c31,12 62,29 68,37c16,19 30,10 30,-19c0,-46 0,-46 445,-46c438,0 445,1 445,42c0,17 4,16 48,-6c111,-56 283,-80 403,-57c62,13 148,50 180,78c15,12 17,11 24,-14c3,-15 12,-31 18,-35c7,-4 73,-8 148,-8c109,0 139,3 149,15c11,14 0,97 -46,328l-6,27l144,0l143,0l33,-177c17,-98 37,-180 44,-185c7,-4 225,-7 483,-5l470,2l3,31c4,46 -34,235 -50,245c-7,5 -55,9 -105,9c-51,0 -93,2 -93,5c0,30 -135,723 -142,733c-11,13 -260,18 -292,6c-10,-4 -16,-18 -16,-35c0,-16 27,-175 60,-352c33,-178 60,-331 60,-340c0,-14 -10,-17 -58,-17l-58,0l-66,361c-37,198 -72,367 -79,375c-18,22 -281,20 -300,-2c-10,-13 -7,-44 19,-182c18,-92 32,-175 32,-185c0,-15 -14,-17 -140,-17c-137,0 -140,0 -145,23c-2,12 -18,96 -35,187c-17,90 -36,170 -42,177c-11,14 -260,19 -292,7c-9,-3 -16,-17 -16,-30l0,-23l-63,30c-121,56 -272,73 -405,44zm241,-276c22,-6 55,-26 75,-44l37,-34l-77,-1c-95,0 -108,-5 -108,-40c0,-27 25,-176 36,-212c5,-16 22,-18 184,-18c187,0 190,-1 190,-46c0,-11 -10,-10 -50,6c-78,31 -87,28 -114,-35c-17,-36 -36,-61 -58,-75c-135,-82 -334,86 -346,292c-10,165 83,248 231,207zm-703,-43c0,-7 3,-28 6,-45l7,-31l-120,0l-120,0l-7,31c-12,61 -16,59 114,59c95,0 120,-3 120,-14zm-556,-63c4,-27 10,-56 12,-66c5,-17 3,-17 -35,3c-23,11 -41,23 -41,26c0,10 45,84 51,84c4,0 10,-21 13,-47zm-213,-266c23,-16 37,-35 44,-61c8,-34 7,-40 -14,-57c-30,-25 -88,-25 -95,-1c-4,15 -26,130 -26,139c0,12 63,-1 91,-20zm-407,-49c3,-7 7,-25 10,-40l6,-28l-69,0c-63,0 -69,2 -75,23c-14,54 -11,57 59,57c44,0 67,-4 69,-12zm1246,-5c0,-10 3,-28 6,-40c6,-23 6,-23 -114,-23c-116,0 -120,1 -126,23c-15,57 -16,57 114,57c108,0 120,-2 120,-17z"/>
   <path id="svg_16" d="m2030,1732c-69,-23 -115,-47 -161,-83c-30,-23 -39,-26 -48,-16c-21,27 -126,70 -200,83c-109,19 -514,19 -530,0c-9,-11 8,-124 79,-508c51,-271 97,-499 103,-506c15,-18 462,-12 522,8c39,12 117,80 127,110c4,12 18,5 66,-28c129,-90 248,-126 391,-118c53,3 168,8 256,11c197,7 205,8 205,40c0,20 -29,190 -45,263c-3,13 54,-40 147,-138l151,-160l173,0c181,0 203,5 190,47c-3,10 -105,114 -227,232c-146,142 -219,219 -216,230c2,9 70,119 151,244c81,127 146,239 146,252c0,12 -7,26 -16,29c-9,3 -91,6 -184,6c-127,0 -172,-3 -182,-13c-7,-8 -56,-86 -108,-175c-52,-89 -96,-159 -97,-155c-2,5 -16,79 -32,167c-17,87 -33,161 -36,165c-4,3 -84,9 -178,13c-95,4 -221,9 -282,12c-90,5 -120,3 -165,-12zm-465,-286c37,-16 58,-46 53,-79c-3,-24 -31,-35 -99,-36c-46,-1 -47,-1 -53,37c-4,20 -9,49 -12,65c-5,26 -4,27 36,27c22,0 56,-6 75,-14zm782,-40c29,-14 53,-29 53,-35c0,-5 14,-83 31,-173l30,-163l-21,-17c-108,-87 -312,-5 -370,149c-75,201 76,331 277,239zm-744,-368c35,-41 18,-78 -38,-78c-19,0 -24,7 -29,38c-4,20 -10,45 -13,56c-4,16 -1,17 29,11c18,-4 41,-16 51,-27z"/>
   <path id="svg_17" d="m1821,625c-18,-8 -43,-15 -54,-15c-35,0 -8,-16 118,-70c331,-143 772,-305 1196,-440c337,-107 373,-109 99,-7c-430,161 -890,351 -1174,486c-71,34 -134,61 -140,61c-6,-1 -26,-7 -45,-15z"/>
  </g>
  <g fill="#0098e3" id="layer102">
   <path id="svg_18" d="m775,2710c-435,-49 -708,-218 -761,-471c-34,-162 20,-340 164,-543c75,-106 279,-308 422,-420c108,-84 367,-259 473,-320c53,-32 53,-32 41,57c-7,46 -7,46 -133,130c-568,379 -834,742 -718,980c182,370 1153,343 2231,-64c71,-27 131,-47 133,-45c5,5 -215,446 -222,446c-3,0 -70,20 -149,45c-286,88 -564,151 -820,186c-172,23 -534,33 -661,19z"/>
   <path id="svg_19" d="m2090,1709c-60,-10 -158,-55 -204,-93l-28,-23l26,-39c30,-46 56,-140 56,-204c0,-57 -38,-138 -78,-164l-29,-19l34,-49c38,-57 63,-134 63,-192c0,-38 4,-45 53,-82c115,-90 245,-138 377,-138c77,0 173,19 207,41c8,6 5,44 -14,148c-14,77 -27,142 -29,143c-1,2 -18,-11 -37,-30c-40,-40 -93,-58 -173,-58c-109,0 -211,66 -263,171c-93,186 -12,348 175,349c72,0 127,-17 189,-60c25,-17 45,-27 45,-22c0,27 -51,276 -57,282c-15,14 -129,39 -193,44c-36,3 -90,1 -120,-5z"/>
   <path id="svg_20" d="m5953,1705c-57,-16 -115,-43 -150,-72l-21,-18l74,-399c41,-219 78,-404 84,-411c20,-24 108,-64 185,-86c112,-30 274,-25 355,13c94,42 152,104 184,195l14,40l-121,47c-67,25 -125,46 -129,46c-3,0 -12,-16 -18,-35c-14,-44 -69,-91 -120,-105c-196,-53 -405,210 -350,440c16,68 76,133 139,150c100,27 217,-22 264,-109l28,-51l-104,0l-104,0l8,-47c5,-27 14,-72 20,-100l10,-53l246,0l246,0l-6,43c-3,23 -17,75 -31,115c-68,201 -221,348 -411,397c-73,19 -222,18 -292,0z"/>
   <path id="svg_21" d="m1120,1683c1,-5 40,-219 88,-478l88,-470l234,0c224,0 237,1 277,22c85,46 111,129 78,251c-16,56 -27,75 -71,119l-52,52l29,6c75,17 126,105 116,198c-15,120 -64,200 -154,250c-88,47 -155,57 -405,57c-126,0 -228,-3 -228,-7zm431,-194c60,-13 94,-44 103,-94c13,-69 -18,-93 -132,-102l-78,-6l-17,90c-24,127 -25,123 28,123c24,0 67,-5 96,-11zm49,-399c30,-16 52,-49 57,-88c5,-35 2,-42 -21,-58c-25,-16 -126,-33 -126,-21c0,3 -7,41 -15,84c-21,111 -23,106 38,98c28,-4 59,-11 67,-15z"/>
   <path id="svg_22" d="m2440,1678c1,-7 13,-79 29,-161c22,-117 25,-151 16,-164c-8,-10 -19,-14 -30,-10c-14,6 -16,3 -12,-15c3,-13 15,-75 27,-139c21,-112 22,-116 46,-111c18,3 26,-2 33,-19c15,-36 63,-308 56,-319c-4,-6 33,-10 94,-10c90,0 101,2 101,18c0,9 -15,98 -34,196l-34,179l82,-84c45,-46 129,-135 189,-196l107,-113l152,0l153,1l-228,225c-158,155 -227,229 -223,240c3,8 73,121 156,249c82,129 150,237 150,240c0,3 -72,5 -159,5l-159,0l-20,-32c-11,-18 -66,-112 -123,-208l-103,-175l-12,60c-6,33 -24,126 -39,208l-27,147l-94,0c-69,0 -94,-3 -94,-12z"/>
   <path id="svg_23" d="m3785,1668c2,-13 41,-221 85,-463c45,-242 83,-448 86,-457c5,-17 27,-18 280,-18c213,0 274,3 273,13c0,6 -8,53 -18,102l-17,90l-152,3l-151,3l-11,57c-6,31 -13,67 -16,80c-4,22 -4,22 131,22c156,0 144,-12 118,122l-17,88l-138,0c-76,0 -138,3 -138,8c0,8 -57,317 -65,350c-5,21 -9,22 -130,22c-125,0 -125,0 -120,-22z"/>
   <path id="svg_24" d="m4250,1672c0,-15 41,-246 55,-309c5,-20 12,-23 50,-23c51,0 45,11 74,-142c21,-112 16,-128 -35,-128c-35,0 -35,-1 -29,-32c14,-69 12,-68 71,-68c65,0 65,0 90,-142l16,-98l162,0c223,0 303,26 353,115c47,83 23,241 -51,338c-35,45 -108,95 -153,103c-22,4 -32,11 -29,19c2,7 52,95 110,195c58,100 106,183 106,186c0,2 -69,4 -154,4l-153,0l-51,-112c-28,-62 -65,-144 -82,-182c-17,-38 -32,-67 -34,-65c-2,2 -19,84 -37,182l-32,177l-124,0c-111,0 -123,-2 -123,-18zm455,-523c79,-22 132,-106 103,-167c-17,-35 -71,-62 -125,-62c-48,0 -42,-12 -71,143l-19,97l36,0c20,0 54,-5 76,-11z"/>
   <path id="svg_25" d="m5021,1585l-62,-105l22,-117c18,-100 27,-127 59,-175c21,-32 46,-81 55,-108c22,-66 22,-173 1,-223c-12,-29 -14,-48 -7,-79c5,-22 11,-42 14,-44c2,-2 125,-3 273,-2l269,3l-19,103l-19,102l-148,0l-148,0l-11,58c-6,31 -13,67 -16,80c-4,22 -4,22 137,22l142,0l-6,28c-3,15 -11,62 -18,105l-13,77l-142,0l-142,0l-12,68c-6,37 -14,75 -17,85c-4,16 8,17 145,17l150,0l-13,68c-7,37 -15,84 -19,105l-7,37l-194,0l-193,0l-61,-105z"/>
   <path id="svg_26" d="m5503,1668c17,-70 37,-199 33,-207c-4,-5 7,-76 23,-158c16,-81 35,-184 41,-228c7,-44 19,-91 25,-105c7,-14 20,-65 29,-115c9,-49 19,-98 22,-107c5,-16 19,-18 120,-18c85,0 114,3 114,13c0,7 -38,219 -85,471c-47,252 -85,463 -85,467c0,5 -54,9 -121,9c-121,0 -121,0 -116,-22z"/>
   <path id="svg_27" d="m6470,1664c0,-18 20,-48 68,-99c82,-88 132,-183 168,-318c32,-122 29,-127 -68,-127l-69,0l7,-37c9,-51 7,-48 65,-69c27,-10 55,-24 61,-31c13,-16 -12,-94 -47,-146c-21,-30 -25,-44 -19,-72l6,-35l124,0c68,0 124,3 124,8c0,4 -15,87 -34,185l-33,177l182,0l181,0l18,-97c9,-54 24,-137 33,-185l16,-88l123,0c68,0 124,3 124,8c0,4 -39,220 -87,480l-87,472l-123,0c-81,0 -123,-4 -123,-11c0,-11 56,-317 65,-357l5,-22l-182,2l-182,3l-35,193l-36,192l-122,0l-123,0l0,-26z"/>
   <path id="svg_28" d="m7524,1673c3,-10 32,-166 66,-348c33,-181 63,-342 66,-357l6,-28l-81,0c-45,0 -81,-3 -81,-7c0,-5 7,-52 17,-105l16,-98l314,0c295,0 314,1 309,18c-5,16 -36,179 -36,188c0,2 -47,4 -104,4l-104,0l-26,143c-15,78 -46,246 -69,372l-43,230l-128,3c-118,2 -127,1 -122,-15z"/>
   <path id="svg_29" d="m1821,625c-18,-8 -43,-15 -54,-15c-13,0 -17,-4 -11,-9c27,-28 571,-244 917,-365c232,-81 696,-228 709,-224c5,2 -116,50 -269,107c-418,157 -957,382 -1172,491c-69,34 -73,35 -120,15z"/>
  </g>
  <g fill="#fefdfc" id="layer103">
   <path id="svg_30" d="m2091,1709c-59,-10 -161,-56 -205,-93l-28,-23l26,-39c78,-120 69,-309 -19,-367l-32,-21l32,-45c38,-52 65,-135 65,-196c0,-39 4,-44 58,-84c123,-92 241,-135 372,-135c77,0 174,20 206,41c8,6 5,47 -14,148c-14,77 -26,142 -28,144c-2,2 -13,-7 -24,-21c-53,-68 -198,-90 -296,-44c-72,33 -119,78 -153,147c-93,186 -12,348 175,349c71,0 128,-18 190,-60c24,-16 44,-26 44,-21c0,25 -51,276 -58,282c-13,11 -141,39 -200,44c-31,2 -81,0 -111,-6z"/>
   <path id="svg_31" d="m5950,1704c-30,-8 -80,-30 -110,-49c-44,-27 -54,-39 -52,-57c8,-76 144,-784 152,-793c20,-24 112,-66 186,-85c92,-24 225,-26 302,-6c109,29 195,103 231,200l19,51l-121,48c-66,26 -124,47 -128,47c-4,0 -10,-11 -13,-25c-10,-41 -71,-100 -117,-114c-163,-49 -348,120 -366,335c-15,174 94,284 252,255c73,-13 132,-54 163,-112l23,-44l-104,-3l-104,-3l8,-42c4,-23 13,-68 19,-99l11,-58l246,0l246,0l-7,40c-40,254 -214,456 -441,515c-74,19 -222,18 -295,-1z"/>
   <path id="svg_32" d="m1124,1663c6,-28 151,-814 165,-888l7,-40l234,0c232,0 236,0 280,25c82,46 107,132 74,252c-18,62 -77,141 -116,154c-17,5 -12,10 33,28c94,37 126,119 95,244c-20,82 -56,137 -120,179c-89,60 -124,66 -404,71l-254,4l6,-29zm473,-190c65,-31 81,-124 28,-159c-34,-22 -185,-33 -185,-13c0,8 -9,56 -19,108l-18,94l78,-6c46,-3 94,-13 116,-24zm8,-385c27,-12 55,-63 55,-100c0,-37 -31,-59 -94,-65c-31,-3 -56,-3 -56,0c0,3 -7,41 -15,84c-21,112 -23,107 35,99c28,-4 62,-12 75,-18z"/>
   <path id="svg_33" d="m2440,1683c0,-5 13,-77 29,-161c22,-121 25,-156 16,-169c-8,-10 -19,-14 -30,-10c-14,6 -16,3 -12,-15c3,-13 15,-75 27,-139c21,-110 23,-116 44,-112c12,3 27,-1 33,-9c5,-7 23,-86 38,-175l29,-163l93,0c82,0 93,2 93,18c0,9 -15,98 -34,196l-34,179l87,-89c47,-49 132,-137 189,-197l103,-107l152,0l152,1l-229,224c-159,157 -226,230 -222,240c3,9 73,121 156,251c82,129 150,237 150,239c0,3 -72,5 -159,5l-159,0l-107,-182c-156,-266 -137,-244 -151,-173c-6,33 -24,126 -39,208l-27,147l-94,0c-52,0 -94,-3 -94,-7z"/>
   <path id="svg_34" d="m3785,1668c3,-13 41,-219 85,-458c44,-239 82,-445 85,-457l5,-23l276,0l275,0l-6,33c-3,17 -12,64 -18,102l-13,70l-151,3l-152,3l-11,57c-6,31 -13,67 -16,80c-4,22 -4,22 131,22c98,0 135,3 135,12c0,6 -7,54 -17,105l-16,93l-138,0l-137,0l-6,28c-3,15 -17,92 -31,172c-15,80 -28,153 -31,163c-5,15 -20,17 -130,17c-124,0 -124,0 -119,-22z"/>
   <path id="svg_35" d="m4250,1677c0,-13 45,-268 55,-314c5,-20 12,-23 50,-23c51,0 45,12 75,-145c21,-112 18,-125 -37,-125c-34,0 -34,-1 -28,-32c14,-69 12,-68 70,-68c66,0 65,0 90,-137l18,-103l162,0c173,0 233,11 296,52c104,69 106,268 5,401c-35,45 -108,95 -153,103c-24,5 -33,11 -29,21c3,8 53,95 111,194c58,99 105,182 105,185c0,2 -69,4 -153,4l-154,0l-83,-185c-46,-102 -84,-184 -85,-182c-1,1 -17,84 -35,185l-34,182l-123,0c-96,0 -123,-3 -123,-13zm497,-542c36,-21 59,-57 68,-106c6,-31 3,-41 -22,-69c-24,-27 -37,-32 -90,-37c-71,-7 -62,-22 -92,141l-18,99l62,-5c35,-3 76,-13 92,-23z"/>
   <path id="svg_36" d="m5021,1585l-62,-105l22,-117c18,-100 27,-127 59,-175c21,-32 46,-81 56,-110c22,-67 22,-171 1,-221c-13,-30 -15,-48 -8,-79c5,-22 11,-42 14,-44c2,-2 125,-3 273,-2l269,3l-19,103l-19,102l-148,0l-148,0l-11,58c-6,31 -13,67 -16,80c-4,22 -4,22 137,22l142,0l-6,28c-3,15 -11,62 -18,105l-13,77l-142,0l-141,0l-12,63c-7,34 -15,72 -18,84c-5,22 -4,22 144,25l149,3l-19,103l-19,102l-193,0l-193,0l-61,-105z"/>
   <path id="svg_37" d="m5505,1668c17,-80 35,-199 31,-207c-3,-5 7,-76 23,-157c16,-82 34,-183 41,-224c7,-41 18,-90 26,-108c7,-19 21,-73 29,-120c9,-48 19,-95 21,-104c5,-16 19,-18 120,-18c77,0 114,4 114,11c0,6 -38,218 -85,471c-47,253 -85,464 -85,469c0,5 -54,9 -120,9c-120,0 -120,0 -115,-22z"/>
   <path id="svg_38" d="m6470,1664c0,-19 20,-47 69,-100c82,-88 140,-198 171,-327c26,-112 23,-117 -72,-117l-69,0l7,-37c9,-51 7,-49 63,-68c70,-23 76,-34 57,-92c-9,-27 -28,-65 -41,-86c-21,-30 -25,-44 -19,-72l6,-35l124,0c68,0 124,3 124,8c0,4 -15,87 -34,185l-33,177l182,0l181,0l34,-185l33,-185l125,0l125,0l-6,28c-2,15 -42,231 -88,480l-84,452l-122,0c-81,0 -123,-4 -123,-11c0,-11 56,-317 65,-357l5,-22l-182,2l-182,3l-36,190l-35,190l-122,3l-123,3l0,-27z"/>
   <path id="svg_39" d="m7526,1673c2,-10 31,-166 64,-348c33,-181 63,-342 66,-357l6,-28l-81,0c-45,0 -81,-3 -81,-7c0,-5 7,-52 17,-105l18,-98l312,0c245,0 312,3 309,13c-3,6 -12,54 -21,105l-17,92l-104,0c-57,0 -104,3 -104,8c-1,4 -31,171 -68,372l-68,365l-126,3c-117,2 -126,1 -122,-15z"/>
  </g>
  <path id="svg_41" d="m3599.06666,3051.85333" opacity="0.5" stroke-width="1.5" stroke="#000" fill="#fff"/>
 </g>
</svg>